<svg height="420pt" preserveAspectRatio="xMidYMid meet" viewBox="0 0 420 420" width="420pt" xmlns="http://www.w3.org/2000/svg"><path d="m2514 3971c-18-4-62-9-98-10-37-1-90-6-118-11-28-6-76-12-107-16-77-7-168-23-199-35-31-11-90-50-142-92-19-15-41-32-47-38-7-5-16-9-20-9-17 0-139-44-163-59-14-8-43-30-65-47-22-18-69-49-104-69-35-21-80-52-100-69s-55-44-79-60c-23-16-51-44-63-62-11-18-28-36-39-39-10-3-43-29-73-58s-67-63-82-77c-37-33-137-166-161-213l-20-38-30 33c-45 50-162 125-219 141-41 11-67 11-141 2-98-13-135-29-191-87-54-54-60-62-91-119-26-47-34-70-49-139-5-24-4-113 1-135 38-169 138-268 284-282 73-7 80-15 62-76-54-192-55-222-15-357 14-46 25-91 25-101 0-14 82-185 146-304 6-11 30-58 54-105 73-147 94-176 155-216 14-9 25-20 25-25 0-11 109-171 143-210 12-15 36-35 53-45 38-24 130-101 158-134 66-76 178-164 274-215 45-24 93-57 107-73 26-31 41-38 149-72 38-12 92-38 121-60 56-42 80-52 210-93 92-29 120-36 189-43 28-3 54-8 60-11 5-3 51-8 103-10s111-10 131-17 46-11 57-9 56 6 100 8c46 3 116 16 165 30 47 15 93 28 102 30 24 5 58 24 98 55 19 15 57 33 84 41 51 13 65 24 194 163 29 31 67 77 84 103 18 27 43 59 56 73 29 30 58 93 66 140 3 19 17 79 31 133 24 90 25 111 21 250-6 189-30 332-80 462-8 22-15 50-16 63 0 13-16 53-36 90-19 37-46 93-59 124-13 32-34 72-46 89-21 30-22 33-6 58 26 41 77 144 77 154 0 5 14 37 31 71 30 58 94 263 105 336 3 19 12 63 19 97 8 34 15 104 15 155s1 116 1 143c0 28-8 82-19 120-10 39-27 102-36 140-12 48-30 86-57 122-21 29-39 55-39 58 0 10-32 49-108 135-111 123-144 153-232 206-99 59-110 64-170 70-25 3-70 13-100 24-61 21-283 35-336 21zm251-295c17-3 45-8 64-11 42-6 126-44 183-82 24-16 55-35 70-42 51-26 119-101 145-159 95-215 104-272 90-572-6-115-14-151-50-213-13-23-32-67-42-97s-20-59-24-65c-3-5-6-12-6-15-1-10-38-76-59-105-12-16-27-41-34-55-37-79-62-145-62-161 0-29 30-99 68-159 40-62 112-213 112-234 0-7 19-51 42-97 55-111 64-156 62-329-2-201-4-212-66-385-39-106-78-162-151-216-76-55-217-139-237-140-17-1-37-4-155-27-16-3-97-5-180-5-138 1-161 4-280 35-71 20-152 46-180 60-27 14-75 31-105 37-30 7-62 15-70 18-8 4-18 6-21 5-3 0-28 17-55 40-27 22-67 49-90 58-23 10-61 32-85 50-213 153-198 141-348 290-106 105-233 253-291 340-13 19-36 49-50 66-34 40-113 186-134 249-10 27-21 54-26 60s-16 37-24 68-23 73-33 94c-12 26-17 62-18 118 0 76 19 165 36 165 4 0 18-15 31-32 50-72 82-104 129-128 43-22 68-28 165-36 93-8 149 8 199 55 22 21 61 52 86 69 40 27 52 43 80 109 50 120 50 160-2 277-30 69-53 106-78 127-20 16-40 29-46 29s-29 15-51 34c-54 46-96 66-151 71-25 3-48 7-50 9s26 37 62 77c94 106 113 125 204 209 45 41 98 92 118 112 19 20 78 65 131 100 54 34 99 66 102 69s27 16 54 28c27 11 58 31 70 44 34 38 67 53 141 67 39 8 108 30 155 51s100 41 119 44 38 8 41 10c4 3 25 7 46 11 22 3 55 9 74 13 37 9 325 6 375-3zm-2168-875c9-20 12-47 8-67-6-33-51-86-77-90-71-11-86-7-119 25-25 25-29 37-29 84 0 65 19 87 82 94 24 3 44 6 46 8s19-2 39-8c27-8 40-20 50-46zm565-262c15-6 34-26 43-45 15-32 15-37-5-80-31-71-48-78-146-58-28 5-64 66-64 108 0 32 35 76 70 89 19 6 67 0 102-14z" transform="matrix(.1 0 0 -.1 0 420)"/></svg>