<?xml version="1.0" standalone="no"?>
<!DOCTYPE svg PUBLIC "-//W3C//DTD SVG 20010904//EN"
 "http://www.w3.org/TR/2001/REC-SVG-20010904/DTD/svg10.dtd">
<svg version="1.0" xmlns="http://www.w3.org/2000/svg"
 width="260.000000pt" height="260.000000pt" viewBox="0 0 260.000000 260.000000"
 preserveAspectRatio="xMidYMid meet">
<metadata>
Created by potrace 1.14, written by Peter Selinger 2001-2017
</metadata>
<g transform="translate(0.000000,260.000000) scale(0.100000,-0.100000)"
fill="#000000" stroke="none">
<path d="M1485 2369 c-16 -5 -55 -12 -85 -15 -30 -2 -73 -11 -95 -19 -22 -8
-69 -21 -104 -30 -74 -19 -151 -60 -206 -110 -22 -20 -60 -48 -85 -63 -45 -27
-90 -68 -90 -83 0 -4 -9 -11 -21 -14 -12 -4 -38 -23 -58 -43 -69 -69 -63 -69
-120 -12 -28 28 -74 62 -103 75 -44 20 -62 23 -125 19 -41 -2 -87 -11 -102
-19 -49 -25 -128 -121 -147 -177 -60 -178 40 -361 204 -372 26 -1 46 -7 46
-12 -1 -5 -12 -50 -24 -100 l-24 -91 24 -99 c25 -109 75 -224 124 -284 17 -21
49 -69 71 -106 25 -43 82 -109 155 -181 172 -170 161 -161 271 -228 82 -50
230 -111 298 -121 20 -3 51 -12 69 -20 45 -18 127 -27 252 -27 l105 0 108 52
c177 86 277 202 311 361 14 65 25 158 28 240 3 59 -40 215 -71 259 -10 14 -31
53 -46 85 l-28 59 28 56 c37 75 91 209 99 246 16 73 22 222 11 280 -14 74 -50
183 -71 211 -75 102 -148 173 -207 202 -64 32 -238 81 -307 87 -30 2 -68 0
-85 -6z m220 -224 c53 -18 155 -81 155 -95 0 -5 12 -22 26 -39 14 -17 23 -31
20 -31 -3 0 2 -17 11 -37 22 -55 28 -241 9 -301 -8 -26 -17 -65 -21 -87 -3
-22 -17 -57 -31 -77 -13 -21 -24 -42 -24 -48 0 -5 -13 -39 -30 -73 -16 -35
-30 -69 -30 -75 0 -6 32 -71 70 -144 82 -154 94 -199 86 -311 -9 -120 -39
-209 -90 -265 -37 -41 -129 -97 -176 -108 -50 -11 -180 -12 -215 -2 -16 5 -48
10 -71 12 -67 7 -136 31 -207 75 -37 22 -71 41 -75 41 -13 1 -92 58 -128 94
-20 20 -56 51 -80 68 -24 17 -44 34 -44 38 0 4 -10 18 -22 32 -67 73 -108 123
-108 130 0 5 -22 42 -49 82 -27 40 -56 95 -64 123 -9 28 -21 61 -27 73 -15 29
-16 105 -1 159 l13 44 17 -39 c28 -61 120 -128 176 -127 65 1 173 27 211 50
67 43 125 147 118 215 -7 77 -42 151 -97 202 -70 65 -86 75 -130 78 -20 1 -37
4 -37 6 0 7 104 101 112 102 5 0 26 16 47 35 50 46 171 125 189 125 8 0 42 13
76 30 103 50 171 66 276 64 60 -1 113 -8 145 -19z m-1250 -299 c32 -14 35 -19
35 -56 0 -81 -91 -122 -144 -65 -39 42 -23 118 27 128 40 8 47 7 82 -7z m440
-258 c33 -30 38 -61 14 -89 -10 -12 -19 -25 -19 -29 0 -13 -52 -22 -63 -11 -6
6 -19 11 -28 11 -17 0 -39 46 -39 81 0 53 88 77 135 37z"/>
</g>
</svg>
