<?xml version="1.0" standalone="no"?>
<!DOCTYPE svg PUBLIC "-//W3C//DTD SVG 20010904//EN"
 "http://www.w3.org/TR/2001/REC-SVG-20010904/DTD/svg10.dtd">
<svg version="1.0" xmlns="http://www.w3.org/2000/svg"
 width="260.000000pt" height="260.000000pt" viewBox="0 0 260.000000 260.000000"
 preserveAspectRatio="xMidYMid meet">
<metadata>
Created by potrace 1.14, written by Peter Selinger 2001-2017
</metadata>
<g transform="translate(0.000000,260.000000) scale(0.100000,-0.100000)"
fill="#000000" stroke="none">
<path d="M520 2514 c-47 -7 -103 -18 -125 -24 -74 -22 -171 -150 -207 -275
-23 -77 -15 -203 16 -268 36 -77 107 -157 158 -178 16 -6 28 -15 28 -19 0 -4
-16 -31 -35 -59 -18 -28 -48 -81 -66 -116 -40 -81 -41 -111 -14 -316 4 -35 27
-110 60 -199 17 -46 24 -70 30 -105 6 -37 24 -75 65 -135 22 -32 40 -61 40
-64 0 -3 25 -38 55 -77 30 -39 62 -86 70 -103 9 -18 32 -48 52 -67 19 -19 68
-66 107 -106 116 -117 224 -189 344 -228 29 -9 58 -23 65 -30 51 -50 150 -70
337 -69 215 2 333 47 461 174 144 143 202 302 203 565 1 55 -5 134 -12 175
-21 119 -22 124 -24 152 0 15 8 39 18 54 100 140 162 283 188 429 10 53 7 249
-4 290 -6 22 -13 49 -15 59 -3 11 -14 49 -26 85 -20 60 -31 75 -119 162 -129
127 -177 155 -349 200 -96 26 -277 29 -376 6 -38 -8 -83 -18 -100 -21 -51 -8
-176 -55 -270 -102 -49 -24 -94 -44 -100 -44 -5 0 -29 31 -53 69 -90 146 -228
210 -402 185z m127 -294 c33 -20 61 -63 58 -90 -1 -8 -3 -25 -3 -37 -3 -30
-52 -82 -90 -92 -97 -28 -192 82 -147 169 34 67 118 90 182 50z m1073 -65
c109 -19 168 -47 244 -117 98 -88 118 -193 81 -426 -2 -13 -15 -42 -28 -65
-14 -23 -30 -62 -37 -86 -6 -24 -23 -54 -36 -68 -40 -39 -104 -152 -110 -193
-4 -21 1 -70 10 -111 9 -41 20 -96 26 -124 6 -27 13 -59 15 -70 3 -11 6 -63 6
-115 1 -84 -2 -104 -30 -172 -17 -42 -31 -81 -31 -86 0 -5 -12 -24 -27 -41
-16 -16 -36 -41 -45 -54 -40 -57 -238 -101 -344 -77 -22 5 -54 12 -73 15 -41
7 -153 61 -181 87 -11 10 -46 34 -78 52 -32 19 -85 62 -117 96 -33 34 -88 90
-122 123 -39 40 -73 85 -92 126 -17 35 -37 71 -44 80 -8 9 -20 32 -27 51 -8
19 -27 53 -42 75 -24 34 -43 90 -84 240 -12 44 -5 159 12 197 9 21 20 38 25
38 4 0 17 -20 29 -45 32 -66 76 -98 179 -133 79 -26 103 -30 169 -27 100 5
183 26 220 56 36 30 112 132 136 182 25 55 32 110 25 203 -7 83 -35 154 -80
203 -11 11 -19 23 -19 26 0 3 -11 17 -25 31 -14 14 -25 27 -25 30 0 10 129 64
152 64 14 0 49 7 79 16 110 33 180 37 289 19z m-733 -314 c23 -2 83 -69 89
-99 15 -76 -38 -141 -119 -144 -38 -1 -63 10 -96 46 -31 33 -34 107 -7 147 20
31 68 57 99 54 12 -1 27 -3 34 -4z"/>
</g>
</svg>
